<svg xmlns="http://www.w3.org/2000/svg" xmlns:xlink="http://www.w3.org/1999/xlink" version="1.1" x="0px" y="0px" viewBox="0 0 139 139" enable-background="new 0 0 139 139" xml:space="preserve"><path d="M69.5,8.666c-33.544,0-60.834,27.29-60.834,60.834s27.29,60.834,60.834,60.834s60.834-27.29,60.834-60.834  S103.044,8.666,69.5,8.666z M69.5,124.334c-30.235,0-54.834-24.599-54.834-54.834S39.265,14.666,69.5,14.666  s54.834,24.599,54.834,54.834S99.735,124.334,69.5,124.334z"/><path d="M37.713,49.588v39.824L69.5,102.046l31.787-12.634V49.588L69.5,36.956L37.713,49.588z M91.063,51.981L69.5,60.551  l-21.563-8.57l21.563-8.57L91.063,51.981z M43.713,56.759L66.5,65.815v28.582L43.713,85.34V56.759z M72.5,94.396V65.815  l22.787-9.055v28.58L72.5,94.396z"/></svg>